<?xml version="1.0" encoding="utf-8"?>
<svg xmlns="http://www.w3.org/2000/svg" xmlns:xlink="http://www.w3.org/1999/xlink" style="margin: auto; background: rgb(255, 255, 255); display: block; shape-rendering: auto;" width="221px" height="221px" viewBox="0 0 100 100" preserveAspectRatio="xMidYMid">
<g transform="rotate(0 50 50)">
  <rect x="45.5" y="33.5" rx="3.6" ry="2.5" width="9" height="5" fill="#7ed095">
    <animate attributeName="opacity" values="1;0" keyTimes="0;1" dur="0.7246376811594202s" begin="-0.7153474544778892s" repeatCount="indefinite"></animate>
  </rect>
</g><g transform="rotate(4.615384615384615 50 50)">
  <rect x="45.5" y="33.5" rx="3.6" ry="2.5" width="9" height="5" fill="#7ed095">
    <animate attributeName="opacity" values="1;0" keyTimes="0;1" dur="0.7246376811594202s" begin="-0.7060572277963582s" repeatCount="indefinite"></animate>
  </rect>
</g><g transform="rotate(9.23076923076923 50 50)">
  <rect x="45.5" y="33.5" rx="3.6" ry="2.5" width="9" height="5" fill="#7ed095">
    <animate attributeName="opacity" values="1;0" keyTimes="0;1" dur="0.7246376811594202s" begin="-0.6967670011148271s" repeatCount="indefinite"></animate>
  </rect>
</g><g transform="rotate(13.846153846153847 50 50)">
  <rect x="45.5" y="33.5" rx="3.6" ry="2.5" width="9" height="5" fill="#7ed095">
    <animate attributeName="opacity" values="1;0" keyTimes="0;1" dur="0.7246376811594202s" begin="-0.687476774433296s" repeatCount="indefinite"></animate>
  </rect>
</g><g transform="rotate(18.46153846153846 50 50)">
  <rect x="45.5" y="33.5" rx="3.6" ry="2.5" width="9" height="5" fill="#7ed095">
    <animate attributeName="opacity" values="1;0" keyTimes="0;1" dur="0.7246376811594202s" begin="-0.678186547751765s" repeatCount="indefinite"></animate>
  </rect>
</g><g transform="rotate(23.076923076923077 50 50)">
  <rect x="45.5" y="33.5" rx="3.6" ry="2.5" width="9" height="5" fill="#7ed095">
    <animate attributeName="opacity" values="1;0" keyTimes="0;1" dur="0.7246376811594202s" begin="-0.668896321070234s" repeatCount="indefinite"></animate>
  </rect>
</g><g transform="rotate(27.692307692307693 50 50)">
  <rect x="45.5" y="33.5" rx="3.6" ry="2.5" width="9" height="5" fill="#7ed095">
    <animate attributeName="opacity" values="1;0" keyTimes="0;1" dur="0.7246376811594202s" begin="-0.659606094388703s" repeatCount="indefinite"></animate>
  </rect>
</g><g transform="rotate(32.30769230769231 50 50)">
  <rect x="45.5" y="33.5" rx="3.6" ry="2.5" width="9" height="5" fill="#7ed095">
    <animate attributeName="opacity" values="1;0" keyTimes="0;1" dur="0.7246376811594202s" begin="-0.650315867707172s" repeatCount="indefinite"></animate>
  </rect>
</g><g transform="rotate(36.92307692307692 50 50)">
  <rect x="45.5" y="33.5" rx="3.6" ry="2.5" width="9" height="5" fill="#7ed095">
    <animate attributeName="opacity" values="1;0" keyTimes="0;1" dur="0.7246376811594202s" begin="-0.641025641025641s" repeatCount="indefinite"></animate>
  </rect>
</g><g transform="rotate(41.53846153846154 50 50)">
  <rect x="45.5" y="33.5" rx="3.6" ry="2.5" width="9" height="5" fill="#7ed095">
    <animate attributeName="opacity" values="1;0" keyTimes="0;1" dur="0.7246376811594202s" begin="-0.63173541434411s" repeatCount="indefinite"></animate>
  </rect>
</g><g transform="rotate(46.15384615384615 50 50)">
  <rect x="45.5" y="33.5" rx="3.6" ry="2.5" width="9" height="5" fill="#7ed095">
    <animate attributeName="opacity" values="1;0" keyTimes="0;1" dur="0.7246376811594202s" begin="-0.6224451876625788s" repeatCount="indefinite"></animate>
  </rect>
</g><g transform="rotate(50.76923076923077 50 50)">
  <rect x="45.5" y="33.5" rx="3.6" ry="2.5" width="9" height="5" fill="#7ed095">
    <animate attributeName="opacity" values="1;0" keyTimes="0;1" dur="0.7246376811594202s" begin="-0.6131549609810478s" repeatCount="indefinite"></animate>
  </rect>
</g><g transform="rotate(55.38461538461539 50 50)">
  <rect x="45.5" y="33.5" rx="3.6" ry="2.5" width="9" height="5" fill="#7ed095">
    <animate attributeName="opacity" values="1;0" keyTimes="0;1" dur="0.7246376811594202s" begin="-0.6038647342995168s" repeatCount="indefinite"></animate>
  </rect>
</g><g transform="rotate(60 50 50)">
  <rect x="45.5" y="33.5" rx="3.6" ry="2.5" width="9" height="5" fill="#7ed095">
    <animate attributeName="opacity" values="1;0" keyTimes="0;1" dur="0.7246376811594202s" begin="-0.5945745076179858s" repeatCount="indefinite"></animate>
  </rect>
</g><g transform="rotate(64.61538461538461 50 50)">
  <rect x="45.5" y="33.5" rx="3.6" ry="2.5" width="9" height="5" fill="#7ed095">
    <animate attributeName="opacity" values="1;0" keyTimes="0;1" dur="0.7246376811594202s" begin="-0.5852842809364548s" repeatCount="indefinite"></animate>
  </rect>
</g><g transform="rotate(69.23076923076923 50 50)">
  <rect x="45.5" y="33.5" rx="3.6" ry="2.5" width="9" height="5" fill="#7ed095">
    <animate attributeName="opacity" values="1;0" keyTimes="0;1" dur="0.7246376811594202s" begin="-0.5759940542549238s" repeatCount="indefinite"></animate>
  </rect>
</g><g transform="rotate(73.84615384615384 50 50)">
  <rect x="45.5" y="33.5" rx="3.6" ry="2.5" width="9" height="5" fill="#7ed095">
    <animate attributeName="opacity" values="1;0" keyTimes="0;1" dur="0.7246376811594202s" begin="-0.5667038275733927s" repeatCount="indefinite"></animate>
  </rect>
</g><g transform="rotate(78.46153846153847 50 50)">
  <rect x="45.5" y="33.5" rx="3.6" ry="2.5" width="9" height="5" fill="#7ed095">
    <animate attributeName="opacity" values="1;0" keyTimes="0;1" dur="0.7246376811594202s" begin="-0.5574136008918616s" repeatCount="indefinite"></animate>
  </rect>
</g><g transform="rotate(83.07692307692308 50 50)">
  <rect x="45.5" y="33.5" rx="3.6" ry="2.5" width="9" height="5" fill="#7ed095">
    <animate attributeName="opacity" values="1;0" keyTimes="0;1" dur="0.7246376811594202s" begin="-0.5481233742103306s" repeatCount="indefinite"></animate>
  </rect>
</g><g transform="rotate(87.6923076923077 50 50)">
  <rect x="45.5" y="33.5" rx="3.6" ry="2.5" width="9" height="5" fill="#7ed095">
    <animate attributeName="opacity" values="1;0" keyTimes="0;1" dur="0.7246376811594202s" begin="-0.5388331475287996s" repeatCount="indefinite"></animate>
  </rect>
</g><g transform="rotate(92.3076923076923 50 50)">
  <rect x="45.5" y="33.5" rx="3.6" ry="2.5" width="9" height="5" fill="#7ed095">
    <animate attributeName="opacity" values="1;0" keyTimes="0;1" dur="0.7246376811594202s" begin="-0.5295429208472686s" repeatCount="indefinite"></animate>
  </rect>
</g><g transform="rotate(96.92307692307692 50 50)">
  <rect x="45.5" y="33.5" rx="3.6" ry="2.5" width="9" height="5" fill="#7ed095">
    <animate attributeName="opacity" values="1;0" keyTimes="0;1" dur="0.7246376811594202s" begin="-0.5202526941657376s" repeatCount="indefinite"></animate>
  </rect>
</g><g transform="rotate(101.53846153846153 50 50)">
  <rect x="45.5" y="33.5" rx="3.6" ry="2.5" width="9" height="5" fill="#7ed095">
    <animate attributeName="opacity" values="1;0" keyTimes="0;1" dur="0.7246376811594202s" begin="-0.5109624674842066s" repeatCount="indefinite"></animate>
  </rect>
</g><g transform="rotate(106.15384615384616 50 50)">
  <rect x="45.5" y="33.5" rx="3.6" ry="2.5" width="9" height="5" fill="#7ed095">
    <animate attributeName="opacity" values="1;0" keyTimes="0;1" dur="0.7246376811594202s" begin="-0.5016722408026755s" repeatCount="indefinite"></animate>
  </rect>
</g><g transform="rotate(110.76923076923077 50 50)">
  <rect x="45.5" y="33.5" rx="3.6" ry="2.5" width="9" height="5" fill="#7ed095">
    <animate attributeName="opacity" values="1;0" keyTimes="0;1" dur="0.7246376811594202s" begin="-0.49238201412114446s" repeatCount="indefinite"></animate>
  </rect>
</g><g transform="rotate(115.38461538461539 50 50)">
  <rect x="45.5" y="33.5" rx="3.6" ry="2.5" width="9" height="5" fill="#7ed095">
    <animate attributeName="opacity" values="1;0" keyTimes="0;1" dur="0.7246376811594202s" begin="-0.48309178743961345s" repeatCount="indefinite"></animate>
  </rect>
</g><g transform="rotate(120 50 50)">
  <rect x="45.5" y="33.5" rx="3.6" ry="2.5" width="9" height="5" fill="#7ed095">
    <animate attributeName="opacity" values="1;0" keyTimes="0;1" dur="0.7246376811594202s" begin="-0.47380156075808244s" repeatCount="indefinite"></animate>
  </rect>
</g><g transform="rotate(124.61538461538461 50 50)">
  <rect x="45.5" y="33.5" rx="3.6" ry="2.5" width="9" height="5" fill="#7ed095">
    <animate attributeName="opacity" values="1;0" keyTimes="0;1" dur="0.7246376811594202s" begin="-0.46451133407655143s" repeatCount="indefinite"></animate>
  </rect>
</g><g transform="rotate(129.23076923076923 50 50)">
  <rect x="45.5" y="33.5" rx="3.6" ry="2.5" width="9" height="5" fill="#7ed095">
    <animate attributeName="opacity" values="1;0" keyTimes="0;1" dur="0.7246376811594202s" begin="-0.45522110739502036s" repeatCount="indefinite"></animate>
  </rect>
</g><g transform="rotate(133.84615384615384 50 50)">
  <rect x="45.5" y="33.5" rx="3.6" ry="2.5" width="9" height="5" fill="#7ed095">
    <animate attributeName="opacity" values="1;0" keyTimes="0;1" dur="0.7246376811594202s" begin="-0.44593088071348935s" repeatCount="indefinite"></animate>
  </rect>
</g><g transform="rotate(138.46153846153845 50 50)">
  <rect x="45.5" y="33.5" rx="3.6" ry="2.5" width="9" height="5" fill="#7ed095">
    <animate attributeName="opacity" values="1;0" keyTimes="0;1" dur="0.7246376811594202s" begin="-0.43664065403195834s" repeatCount="indefinite"></animate>
  </rect>
</g><g transform="rotate(143.07692307692307 50 50)">
  <rect x="45.5" y="33.5" rx="3.6" ry="2.5" width="9" height="5" fill="#7ed095">
    <animate attributeName="opacity" values="1;0" keyTimes="0;1" dur="0.7246376811594202s" begin="-0.4273504273504273s" repeatCount="indefinite"></animate>
  </rect>
</g><g transform="rotate(147.69230769230768 50 50)">
  <rect x="45.5" y="33.5" rx="3.6" ry="2.5" width="9" height="5" fill="#7ed095">
    <animate attributeName="opacity" values="1;0" keyTimes="0;1" dur="0.7246376811594202s" begin="-0.41806020066889626s" repeatCount="indefinite"></animate>
  </rect>
</g><g transform="rotate(152.30769230769232 50 50)">
  <rect x="45.5" y="33.5" rx="3.6" ry="2.5" width="9" height="5" fill="#7ed095">
    <animate attributeName="opacity" values="1;0" keyTimes="0;1" dur="0.7246376811594202s" begin="-0.40876997398736525s" repeatCount="indefinite"></animate>
  </rect>
</g><g transform="rotate(156.92307692307693 50 50)">
  <rect x="45.5" y="33.5" rx="3.6" ry="2.5" width="9" height="5" fill="#7ed095">
    <animate attributeName="opacity" values="1;0" keyTimes="0;1" dur="0.7246376811594202s" begin="-0.3994797473058342s" repeatCount="indefinite"></animate>
  </rect>
</g><g transform="rotate(161.53846153846155 50 50)">
  <rect x="45.5" y="33.5" rx="3.6" ry="2.5" width="9" height="5" fill="#7ed095">
    <animate attributeName="opacity" values="1;0" keyTimes="0;1" dur="0.7246376811594202s" begin="-0.3901895206243032s" repeatCount="indefinite"></animate>
  </rect>
</g><g transform="rotate(166.15384615384616 50 50)">
  <rect x="45.5" y="33.5" rx="3.6" ry="2.5" width="9" height="5" fill="#7ed095">
    <animate attributeName="opacity" values="1;0" keyTimes="0;1" dur="0.7246376811594202s" begin="-0.38089929394277217s" repeatCount="indefinite"></animate>
  </rect>
</g><g transform="rotate(170.76923076923077 50 50)">
  <rect x="45.5" y="33.5" rx="3.6" ry="2.5" width="9" height="5" fill="#7ed095">
    <animate attributeName="opacity" values="1;0" keyTimes="0;1" dur="0.7246376811594202s" begin="-0.3716090672612411s" repeatCount="indefinite"></animate>
  </rect>
</g><g transform="rotate(175.3846153846154 50 50)">
  <rect x="45.5" y="33.5" rx="3.6" ry="2.5" width="9" height="5" fill="#7ed095">
    <animate attributeName="opacity" values="1;0" keyTimes="0;1" dur="0.7246376811594202s" begin="-0.3623188405797101s" repeatCount="indefinite"></animate>
  </rect>
</g><g transform="rotate(180 50 50)">
  <rect x="45.5" y="33.5" rx="3.6" ry="2.5" width="9" height="5" fill="#7ed095">
    <animate attributeName="opacity" values="1;0" keyTimes="0;1" dur="0.7246376811594202s" begin="-0.3530286138981791s" repeatCount="indefinite"></animate>
  </rect>
</g><g transform="rotate(184.6153846153846 50 50)">
  <rect x="45.5" y="33.5" rx="3.6" ry="2.5" width="9" height="5" fill="#7ed095">
    <animate attributeName="opacity" values="1;0" keyTimes="0;1" dur="0.7246376811594202s" begin="-0.343738387216648s" repeatCount="indefinite"></animate>
  </rect>
</g><g transform="rotate(189.23076923076923 50 50)">
  <rect x="45.5" y="33.5" rx="3.6" ry="2.5" width="9" height="5" fill="#7ed095">
    <animate attributeName="opacity" values="1;0" keyTimes="0;1" dur="0.7246376811594202s" begin="-0.334448160535117s" repeatCount="indefinite"></animate>
  </rect>
</g><g transform="rotate(193.84615384615384 50 50)">
  <rect x="45.5" y="33.5" rx="3.6" ry="2.5" width="9" height="5" fill="#7ed095">
    <animate attributeName="opacity" values="1;0" keyTimes="0;1" dur="0.7246376811594202s" begin="-0.325157933853586s" repeatCount="indefinite"></animate>
  </rect>
</g><g transform="rotate(198.46153846153845 50 50)">
  <rect x="45.5" y="33.5" rx="3.6" ry="2.5" width="9" height="5" fill="#7ed095">
    <animate attributeName="opacity" values="1;0" keyTimes="0;1" dur="0.7246376811594202s" begin="-0.315867707172055s" repeatCount="indefinite"></animate>
  </rect>
</g><g transform="rotate(203.07692307692307 50 50)">
  <rect x="45.5" y="33.5" rx="3.6" ry="2.5" width="9" height="5" fill="#7ed095">
    <animate attributeName="opacity" values="1;0" keyTimes="0;1" dur="0.7246376811594202s" begin="-0.3065774804905239s" repeatCount="indefinite"></animate>
  </rect>
</g><g transform="rotate(207.69230769230768 50 50)">
  <rect x="45.5" y="33.5" rx="3.6" ry="2.5" width="9" height="5" fill="#7ed095">
    <animate attributeName="opacity" values="1;0" keyTimes="0;1" dur="0.7246376811594202s" begin="-0.2972872538089929s" repeatCount="indefinite"></animate>
  </rect>
</g><g transform="rotate(212.30769230769232 50 50)">
  <rect x="45.5" y="33.5" rx="3.6" ry="2.5" width="9" height="5" fill="#7ed095">
    <animate attributeName="opacity" values="1;0" keyTimes="0;1" dur="0.7246376811594202s" begin="-0.2879970271274619s" repeatCount="indefinite"></animate>
  </rect>
</g><g transform="rotate(216.92307692307693 50 50)">
  <rect x="45.5" y="33.5" rx="3.6" ry="2.5" width="9" height="5" fill="#7ed095">
    <animate attributeName="opacity" values="1;0" keyTimes="0;1" dur="0.7246376811594202s" begin="-0.2787068004459308s" repeatCount="indefinite"></animate>
  </rect>
</g><g transform="rotate(221.53846153846155 50 50)">
  <rect x="45.5" y="33.5" rx="3.6" ry="2.5" width="9" height="5" fill="#7ed095">
    <animate attributeName="opacity" values="1;0" keyTimes="0;1" dur="0.7246376811594202s" begin="-0.2694165737643998s" repeatCount="indefinite"></animate>
  </rect>
</g><g transform="rotate(226.15384615384616 50 50)">
  <rect x="45.5" y="33.5" rx="3.6" ry="2.5" width="9" height="5" fill="#7ed095">
    <animate attributeName="opacity" values="1;0" keyTimes="0;1" dur="0.7246376811594202s" begin="-0.2601263470828688s" repeatCount="indefinite"></animate>
  </rect>
</g><g transform="rotate(230.76923076923077 50 50)">
  <rect x="45.5" y="33.5" rx="3.6" ry="2.5" width="9" height="5" fill="#7ed095">
    <animate attributeName="opacity" values="1;0" keyTimes="0;1" dur="0.7246376811594202s" begin="-0.25083612040133774s" repeatCount="indefinite"></animate>
  </rect>
</g><g transform="rotate(235.3846153846154 50 50)">
  <rect x="45.5" y="33.5" rx="3.6" ry="2.5" width="9" height="5" fill="#7ed095">
    <animate attributeName="opacity" values="1;0" keyTimes="0;1" dur="0.7246376811594202s" begin="-0.24154589371980673s" repeatCount="indefinite"></animate>
  </rect>
</g><g transform="rotate(240 50 50)">
  <rect x="45.5" y="33.5" rx="3.6" ry="2.5" width="9" height="5" fill="#7ed095">
    <animate attributeName="opacity" values="1;0" keyTimes="0;1" dur="0.7246376811594202s" begin="-0.23225566703827571s" repeatCount="indefinite"></animate>
  </rect>
</g><g transform="rotate(244.6153846153846 50 50)">
  <rect x="45.5" y="33.5" rx="3.6" ry="2.5" width="9" height="5" fill="#7ed095">
    <animate attributeName="opacity" values="1;0" keyTimes="0;1" dur="0.7246376811594202s" begin="-0.22296544035674468s" repeatCount="indefinite"></animate>
  </rect>
</g><g transform="rotate(249.23076923076923 50 50)">
  <rect x="45.5" y="33.5" rx="3.6" ry="2.5" width="9" height="5" fill="#7ed095">
    <animate attributeName="opacity" values="1;0" keyTimes="0;1" dur="0.7246376811594202s" begin="-0.21367521367521364s" repeatCount="indefinite"></animate>
  </rect>
</g><g transform="rotate(253.84615384615384 50 50)">
  <rect x="45.5" y="33.5" rx="3.6" ry="2.5" width="9" height="5" fill="#7ed095">
    <animate attributeName="opacity" values="1;0" keyTimes="0;1" dur="0.7246376811594202s" begin="-0.20438498699368263s" repeatCount="indefinite"></animate>
  </rect>
</g><g transform="rotate(258.46153846153845 50 50)">
  <rect x="45.5" y="33.5" rx="3.6" ry="2.5" width="9" height="5" fill="#7ed095">
    <animate attributeName="opacity" values="1;0" keyTimes="0;1" dur="0.7246376811594202s" begin="-0.1950947603121516s" repeatCount="indefinite"></animate>
  </rect>
</g><g transform="rotate(263.0769230769231 50 50)">
  <rect x="45.5" y="33.5" rx="3.6" ry="2.5" width="9" height="5" fill="#7ed095">
    <animate attributeName="opacity" values="1;0" keyTimes="0;1" dur="0.7246376811594202s" begin="-0.18580453363062055s" repeatCount="indefinite"></animate>
  </rect>
</g><g transform="rotate(267.6923076923077 50 50)">
  <rect x="45.5" y="33.5" rx="3.6" ry="2.5" width="9" height="5" fill="#7ed095">
    <animate attributeName="opacity" values="1;0" keyTimes="0;1" dur="0.7246376811594202s" begin="-0.17651430694908954s" repeatCount="indefinite"></animate>
  </rect>
</g><g transform="rotate(272.3076923076923 50 50)">
  <rect x="45.5" y="33.5" rx="3.6" ry="2.5" width="9" height="5" fill="#7ed095">
    <animate attributeName="opacity" values="1;0" keyTimes="0;1" dur="0.7246376811594202s" begin="-0.1672240802675585s" repeatCount="indefinite"></animate>
  </rect>
</g><g transform="rotate(276.9230769230769 50 50)">
  <rect x="45.5" y="33.5" rx="3.6" ry="2.5" width="9" height="5" fill="#7ed095">
    <animate attributeName="opacity" values="1;0" keyTimes="0;1" dur="0.7246376811594202s" begin="-0.1579338535860275s" repeatCount="indefinite"></animate>
  </rect>
</g><g transform="rotate(281.53846153846155 50 50)">
  <rect x="45.5" y="33.5" rx="3.6" ry="2.5" width="9" height="5" fill="#7ed095">
    <animate attributeName="opacity" values="1;0" keyTimes="0;1" dur="0.7246376811594202s" begin="-0.14864362690449645s" repeatCount="indefinite"></animate>
  </rect>
</g><g transform="rotate(286.15384615384613 50 50)">
  <rect x="45.5" y="33.5" rx="3.6" ry="2.5" width="9" height="5" fill="#7ed095">
    <animate attributeName="opacity" values="1;0" keyTimes="0;1" dur="0.7246376811594202s" begin="-0.1393534002229654s" repeatCount="indefinite"></animate>
  </rect>
</g><g transform="rotate(290.7692307692308 50 50)">
  <rect x="45.5" y="33.5" rx="3.6" ry="2.5" width="9" height="5" fill="#7ed095">
    <animate attributeName="opacity" values="1;0" keyTimes="0;1" dur="0.7246376811594202s" begin="-0.1300631735414344s" repeatCount="indefinite"></animate>
  </rect>
</g><g transform="rotate(295.38461538461536 50 50)">
  <rect x="45.5" y="33.5" rx="3.6" ry="2.5" width="9" height="5" fill="#7ed095">
    <animate attributeName="opacity" values="1;0" keyTimes="0;1" dur="0.7246376811594202s" begin="-0.12077294685990336s" repeatCount="indefinite"></animate>
  </rect>
</g><g transform="rotate(300 50 50)">
  <rect x="45.5" y="33.5" rx="3.6" ry="2.5" width="9" height="5" fill="#7ed095">
    <animate attributeName="opacity" values="1;0" keyTimes="0;1" dur="0.7246376811594202s" begin="-0.11148272017837234s" repeatCount="indefinite"></animate>
  </rect>
</g><g transform="rotate(304.61538461538464 50 50)">
  <rect x="45.5" y="33.5" rx="3.6" ry="2.5" width="9" height="5" fill="#7ed095">
    <animate attributeName="opacity" values="1;0" keyTimes="0;1" dur="0.7246376811594202s" begin="-0.10219249349684131s" repeatCount="indefinite"></animate>
  </rect>
</g><g transform="rotate(309.2307692307692 50 50)">
  <rect x="45.5" y="33.5" rx="3.6" ry="2.5" width="9" height="5" fill="#7ed095">
    <animate attributeName="opacity" values="1;0" keyTimes="0;1" dur="0.7246376811594202s" begin="-0.09290226681531027s" repeatCount="indefinite"></animate>
  </rect>
</g><g transform="rotate(313.84615384615387 50 50)">
  <rect x="45.5" y="33.5" rx="3.6" ry="2.5" width="9" height="5" fill="#7ed095">
    <animate attributeName="opacity" values="1;0" keyTimes="0;1" dur="0.7246376811594202s" begin="-0.08361204013377925s" repeatCount="indefinite"></animate>
  </rect>
</g><g transform="rotate(318.46153846153845 50 50)">
  <rect x="45.5" y="33.5" rx="3.6" ry="2.5" width="9" height="5" fill="#7ed095">
    <animate attributeName="opacity" values="1;0" keyTimes="0;1" dur="0.7246376811594202s" begin="-0.07432181345224823s" repeatCount="indefinite"></animate>
  </rect>
</g><g transform="rotate(323.0769230769231 50 50)">
  <rect x="45.5" y="33.5" rx="3.6" ry="2.5" width="9" height="5" fill="#7ed095">
    <animate attributeName="opacity" values="1;0" keyTimes="0;1" dur="0.7246376811594202s" begin="-0.0650315867707172s" repeatCount="indefinite"></animate>
  </rect>
</g><g transform="rotate(327.6923076923077 50 50)">
  <rect x="45.5" y="33.5" rx="3.6" ry="2.5" width="9" height="5" fill="#7ed095">
    <animate attributeName="opacity" values="1;0" keyTimes="0;1" dur="0.7246376811594202s" begin="-0.05574136008918617s" repeatCount="indefinite"></animate>
  </rect>
</g><g transform="rotate(332.3076923076923 50 50)">
  <rect x="45.5" y="33.5" rx="3.6" ry="2.5" width="9" height="5" fill="#7ed095">
    <animate attributeName="opacity" values="1;0" keyTimes="0;1" dur="0.7246376811594202s" begin="-0.04645113340765514s" repeatCount="indefinite"></animate>
  </rect>
</g><g transform="rotate(336.9230769230769 50 50)">
  <rect x="45.5" y="33.5" rx="3.6" ry="2.5" width="9" height="5" fill="#7ed095">
    <animate attributeName="opacity" values="1;0" keyTimes="0;1" dur="0.7246376811594202s" begin="-0.03716090672612411s" repeatCount="indefinite"></animate>
  </rect>
</g><g transform="rotate(341.53846153846155 50 50)">
  <rect x="45.5" y="33.5" rx="3.6" ry="2.5" width="9" height="5" fill="#7ed095">
    <animate attributeName="opacity" values="1;0" keyTimes="0;1" dur="0.7246376811594202s" begin="-0.027870680044593085s" repeatCount="indefinite"></animate>
  </rect>
</g><g transform="rotate(346.15384615384613 50 50)">
  <rect x="45.5" y="33.5" rx="3.6" ry="2.5" width="9" height="5" fill="#7ed095">
    <animate attributeName="opacity" values="1;0" keyTimes="0;1" dur="0.7246376811594202s" begin="-0.018580453363062056s" repeatCount="indefinite"></animate>
  </rect>
</g><g transform="rotate(350.7692307692308 50 50)">
  <rect x="45.5" y="33.5" rx="3.6" ry="2.5" width="9" height="5" fill="#7ed095">
    <animate attributeName="opacity" values="1;0" keyTimes="0;1" dur="0.7246376811594202s" begin="-0.009290226681531028s" repeatCount="indefinite"></animate>
  </rect>
</g><g transform="rotate(355.38461538461536 50 50)">
  <rect x="45.5" y="33.5" rx="3.6" ry="2.5" width="9" height="5" fill="#7ed095">
    <animate attributeName="opacity" values="1;0" keyTimes="0;1" dur="0.7246376811594202s" begin="0s" repeatCount="indefinite"></animate>
  </rect>
</g>
<!-- [ldio] generated by https://loading.io/ --></svg>